<svg xmlns="http://www.w3.org/2000/svg" xmlns:xlink="http://www.w3.org/1999/xlink" width="20.35" height="20.35" viewBox="0 0 20.35 20.35">
  <defs>
    <clipPath id="clip-path">
      <rect width="20.35" height="20.35" fill="none"/>
    </clipPath>
  </defs>
  <g id="add-circular-outlined-button" clip-path="url(#clip-path)">
    <g id="_x38__3_">
      <g id="Grupo_13" data-name="Grupo 13">
        <path id="Trazado_12" data-name="Trazado 12" d="M10.175,0A10.175,10.175,0,1,0,20.35,10.175,10.174,10.174,0,0,0,10.175,0Zm0,19.078a8.9,8.9,0,1,1,8.9-8.9A8.9,8.9,0,0,1,10.175,19.078ZM13.99,9.539h-3.18V6.359a.636.636,0,1,0-1.272,0v3.18H6.359a.636.636,0,0,0,0,1.272h3.18v3.18a.636.636,0,1,0,1.272,0v-3.18h3.18a.636.636,0,0,0,0-1.272Z" fill="#707070"/>
      </g>
    </g>
  </g>
</svg>
