<svg xmlns="http://www.w3.org/2000/svg" xmlns:xlink="http://www.w3.org/1999/xlink" width="102" height="102" viewBox="0 0 102 102">
  <defs>
    <clipPath id="clip-path">
      <rect width="102" height="102" fill="none"/>
    </clipPath>
    <filter id="Elipse_3" x="0" y="0" width="102" height="102" filterUnits="userSpaceOnUse">
      <feOffset dy="3" input="SourceAlpha"/>
      <feGaussianBlur stdDeviation="3" result="blur"/>
      <feFlood flood-opacity="0.161"/>
      <feComposite operator="in" in2="blur"/>
      <feComposite in="SourceGraphic"/>
    </filter>
  </defs>
  <g id="Nuevo_proyecto" data-name="Nuevo proyecto" clip-path="url(#clip-path)">
    <g transform="matrix(1, 0, 0, 1, 0, 0)" filter="url(#Elipse_3)">
      <circle id="Elipse_3-2" data-name="Elipse 3" cx="42" cy="42" r="42" transform="translate(9 6)" fill="#d8d8d8"/>
    </g>
    <g id="add-circular-outlined-button" transform="translate(27.638 24.349)">
      <g id="_x38__3_">
        <g id="Grupo_13" data-name="Grupo 13">
          <path id="Trazado_12" data-name="Trazado 12" d="M23.825,0A23.825,23.825,0,1,0,47.651,23.825,23.824,23.824,0,0,0,23.825,0Zm0,44.672A20.847,20.847,0,1,1,44.672,23.825,20.847,20.847,0,0,1,23.825,44.672ZM32.76,22.336H25.314V14.891a1.489,1.489,0,1,0-2.978,0v7.445H14.891a1.489,1.489,0,1,0,0,2.978h7.445V32.76a1.489,1.489,0,0,0,2.978,0V25.314H32.76a1.489,1.489,0,0,0,0-2.978Z" fill="#707070"/>
        </g>
      </g>
    </g>
  </g>
</svg>
